<mxfile host="app.diagrams.net" agent="Mozilla/5.0 (Windows NT 10.0; Win64; x64) AppleWebKit/537.36 (KHTML, like Gecko) Chrome/129.0.0.0 Safari/537.36" version="24.7.17">
  <diagram id="R2lEEEUBdFMjLlhIrx00" name="Page-1">
    <mxGraphModel dx="1434" dy="772" grid="1" gridSize="10" guides="1" tooltips="1" connect="1" arrows="1" fold="1" page="1" pageScale="1" pageWidth="850" pageHeight="1100" math="0" shadow="0" extFonts="Permanent Marker^https://fonts.googleapis.com/css?family=Permanent+Marker">
      <root>
        <mxCell id="0" />
        <mxCell id="1" parent="0" />
        <mxCell id="oGyVCp5CdGwXmckuFaIb-8" value="&lt;div&gt;&amp;lt;&amp;lt;interface&amp;gt;&amp;gt;&lt;br&gt;&lt;/div&gt;IList&amp;lt;T, Tdata&amp;gt;" style="swimlane;fontStyle=0;childLayout=stackLayout;horizontal=1;startSize=40;fillColor=none;horizontalStack=0;resizeParent=1;resizeParentMax=0;resizeLast=0;collapsible=1;marginBottom=0;whiteSpace=wrap;html=1;" vertex="1" parent="1">
          <mxGeometry x="425" width="180" height="144" as="geometry" />
        </mxCell>
        <mxCell id="oGyVCp5CdGwXmckuFaIb-9" value="+ Init(): void" style="text;strokeColor=none;fillColor=none;align=left;verticalAlign=top;spacingLeft=4;spacingRight=4;overflow=hidden;rotatable=0;points=[[0,0.5],[1,0.5]];portConstraint=eastwest;whiteSpace=wrap;html=1;" vertex="1" parent="oGyVCp5CdGwXmckuFaIb-8">
          <mxGeometry y="40" width="180" height="26" as="geometry" />
        </mxCell>
        <mxCell id="oGyVCp5CdGwXmckuFaIb-10" value="+ Add(T item): void" style="text;strokeColor=none;fillColor=none;align=left;verticalAlign=top;spacingLeft=4;spacingRight=4;overflow=hidden;rotatable=0;points=[[0,0.5],[1,0.5]];portConstraint=eastwest;whiteSpace=wrap;html=1;" vertex="1" parent="oGyVCp5CdGwXmckuFaIb-8">
          <mxGeometry y="66" width="180" height="26" as="geometry" />
        </mxCell>
        <mxCell id="oGyVCp5CdGwXmckuFaIb-11" value="+ Remove(T item): void" style="text;strokeColor=none;fillColor=none;align=left;verticalAlign=top;spacingLeft=4;spacingRight=4;overflow=hidden;rotatable=0;points=[[0,0.5],[1,0.5]];portConstraint=eastwest;whiteSpace=wrap;html=1;" vertex="1" parent="oGyVCp5CdGwXmckuFaIb-8">
          <mxGeometry y="92" width="180" height="26" as="geometry" />
        </mxCell>
        <mxCell id="oGyVCp5CdGwXmckuFaIb-13" value="+ CreateItem(string path): T" style="text;strokeColor=none;fillColor=none;align=left;verticalAlign=top;spacingLeft=4;spacingRight=4;overflow=hidden;rotatable=0;points=[[0,0.5],[1,0.5]];portConstraint=eastwest;whiteSpace=wrap;html=1;" vertex="1" parent="oGyVCp5CdGwXmckuFaIb-8">
          <mxGeometry y="118" width="180" height="26" as="geometry" />
        </mxCell>
        <mxCell id="oGyVCp5CdGwXmckuFaIb-14" value="&lt;div&gt;&amp;lt;&amp;lt;interface&amp;gt;&amp;gt;&lt;br&gt;&lt;/div&gt;IListItem&amp;lt;T&amp;gt;" style="swimlane;fontStyle=0;childLayout=stackLayout;horizontal=1;startSize=40;fillColor=none;horizontalStack=0;resizeParent=1;resizeParentMax=0;resizeLast=0;collapsible=1;marginBottom=0;whiteSpace=wrap;html=1;" vertex="1" parent="1">
          <mxGeometry x="663" y="285" width="180" height="92" as="geometry" />
        </mxCell>
        <mxCell id="oGyVCp5CdGwXmckuFaIb-15" value="+ ListItemInfo{get; set;}: T" style="text;strokeColor=none;fillColor=none;align=left;verticalAlign=top;spacingLeft=4;spacingRight=4;overflow=hidden;rotatable=0;points=[[0,0.5],[1,0.5]];portConstraint=eastwest;whiteSpace=wrap;html=1;" vertex="1" parent="oGyVCp5CdGwXmckuFaIb-14">
          <mxGeometry y="40" width="180" height="26" as="geometry" />
        </mxCell>
        <mxCell id="oGyVCp5CdGwXmckuFaIb-20" value="+ Init(): void" style="text;strokeColor=none;fillColor=none;align=left;verticalAlign=top;spacingLeft=4;spacingRight=4;overflow=hidden;rotatable=0;points=[[0,0.5],[1,0.5]];portConstraint=eastwest;whiteSpace=wrap;html=1;" vertex="1" parent="oGyVCp5CdGwXmckuFaIb-14">
          <mxGeometry y="66" width="180" height="26" as="geometry" />
        </mxCell>
        <mxCell id="oGyVCp5CdGwXmckuFaIb-21" value="UI_HeroSlot" style="swimlane;fontStyle=0;childLayout=stackLayout;horizontal=1;startSize=40;fillColor=none;horizontalStack=0;resizeParent=1;resizeParentMax=0;resizeLast=0;collapsible=1;marginBottom=0;whiteSpace=wrap;html=1;" vertex="1" parent="1">
          <mxGeometry x="663" y="435" width="180" height="210" as="geometry" />
        </mxCell>
        <mxCell id="oGyVCp5CdGwXmckuFaIb-22" value="+ 각종 UI 요소들" style="text;strokeColor=none;fillColor=none;align=left;verticalAlign=top;spacingLeft=4;spacingRight=4;overflow=hidden;rotatable=0;points=[[0,0.5],[1,0.5]];portConstraint=eastwest;whiteSpace=wrap;html=1;" vertex="1" parent="oGyVCp5CdGwXmckuFaIb-21">
          <mxGeometry y="40" width="180" height="26" as="geometry" />
        </mxCell>
        <mxCell id="oGyVCp5CdGwXmckuFaIb-24" value="+ ListItemInfo{get; set;}: Data.CuttentPlayerOwnInfo" style="text;strokeColor=none;fillColor=none;align=left;verticalAlign=top;spacingLeft=4;spacingRight=4;overflow=hidden;rotatable=0;points=[[0,0.5],[1,0.5]];portConstraint=eastwest;whiteSpace=wrap;html=1;" vertex="1" parent="oGyVCp5CdGwXmckuFaIb-21">
          <mxGeometry y="66" width="180" height="44" as="geometry" />
        </mxCell>
        <mxCell id="oGyVCp5CdGwXmckuFaIb-23" value="+ Init(): void" style="text;strokeColor=none;fillColor=none;align=left;verticalAlign=top;spacingLeft=4;spacingRight=4;overflow=hidden;rotatable=0;points=[[0,0.5],[1,0.5]];portConstraint=eastwest;whiteSpace=wrap;html=1;" vertex="1" parent="oGyVCp5CdGwXmckuFaIb-21">
          <mxGeometry y="110" width="180" height="26" as="geometry" />
        </mxCell>
        <mxCell id="oGyVCp5CdGwXmckuFaIb-25" value="+ OnPointerClick&lt;div&gt;(PointerEventData eventData): void&lt;/div&gt;" style="text;strokeColor=none;fillColor=none;align=left;verticalAlign=top;spacingLeft=4;spacingRight=4;overflow=hidden;rotatable=0;points=[[0,0.5],[1,0.5]];portConstraint=eastwest;whiteSpace=wrap;html=1;" vertex="1" parent="oGyVCp5CdGwXmckuFaIb-21">
          <mxGeometry y="136" width="180" height="74" as="geometry" />
        </mxCell>
        <mxCell id="oGyVCp5CdGwXmckuFaIb-26" value="" style="endArrow=block;dashed=1;endFill=0;endSize=12;html=1;rounded=0;exitX=0.5;exitY=0;exitDx=0;exitDy=0;" edge="1" parent="1" source="oGyVCp5CdGwXmckuFaIb-21" target="oGyVCp5CdGwXmckuFaIb-20">
          <mxGeometry width="160" relative="1" as="geometry">
            <mxPoint x="543" y="563" as="sourcePoint" />
            <mxPoint x="703" y="563" as="targetPoint" />
          </mxGeometry>
        </mxCell>
        <mxCell id="oGyVCp5CdGwXmckuFaIb-27" value="UI_List&amp;lt;T, Tdata&amp;gt;" style="swimlane;fontStyle=0;childLayout=stackLayout;horizontal=1;startSize=40;fillColor=none;horizontalStack=0;resizeParent=1;resizeParentMax=0;resizeLast=0;collapsible=1;marginBottom=0;whiteSpace=wrap;html=1;" vertex="1" parent="1">
          <mxGeometry x="425" y="212" width="180" height="196" as="geometry" />
        </mxCell>
        <mxCell id="oGyVCp5CdGwXmckuFaIb-46" value="+ items: List&amp;lt;T&amp;gt;" style="text;strokeColor=none;fillColor=none;align=left;verticalAlign=top;spacingLeft=4;spacingRight=4;overflow=hidden;rotatable=0;points=[[0,0.5],[1,0.5]];portConstraint=eastwest;whiteSpace=wrap;html=1;" vertex="1" parent="oGyVCp5CdGwXmckuFaIb-27">
          <mxGeometry y="40" width="180" height="26" as="geometry" />
        </mxCell>
        <mxCell id="oGyVCp5CdGwXmckuFaIb-37" value="# Awake: void" style="text;strokeColor=none;fillColor=none;align=left;verticalAlign=top;spacingLeft=4;spacingRight=4;overflow=hidden;rotatable=0;points=[[0,0.5],[1,0.5]];portConstraint=eastwest;whiteSpace=wrap;html=1;" vertex="1" parent="oGyVCp5CdGwXmckuFaIb-27">
          <mxGeometry y="66" width="180" height="26" as="geometry" />
        </mxCell>
        <mxCell id="oGyVCp5CdGwXmckuFaIb-33" value="+ Init(): void" style="text;strokeColor=none;fillColor=none;align=left;verticalAlign=top;spacingLeft=4;spacingRight=4;overflow=hidden;rotatable=0;points=[[0,0.5],[1,0.5]];portConstraint=eastwest;whiteSpace=wrap;html=1;" vertex="1" parent="oGyVCp5CdGwXmckuFaIb-27">
          <mxGeometry y="92" width="180" height="26" as="geometry" />
        </mxCell>
        <mxCell id="oGyVCp5CdGwXmckuFaIb-34" value="+ Add(T item): void" style="text;strokeColor=none;fillColor=none;align=left;verticalAlign=top;spacingLeft=4;spacingRight=4;overflow=hidden;rotatable=0;points=[[0,0.5],[1,0.5]];portConstraint=eastwest;whiteSpace=wrap;html=1;" vertex="1" parent="oGyVCp5CdGwXmckuFaIb-27">
          <mxGeometry y="118" width="180" height="26" as="geometry" />
        </mxCell>
        <mxCell id="oGyVCp5CdGwXmckuFaIb-35" value="+ Remove(T item): void" style="text;strokeColor=none;fillColor=none;align=left;verticalAlign=top;spacingLeft=4;spacingRight=4;overflow=hidden;rotatable=0;points=[[0,0.5],[1,0.5]];portConstraint=eastwest;whiteSpace=wrap;html=1;" vertex="1" parent="oGyVCp5CdGwXmckuFaIb-27">
          <mxGeometry y="144" width="180" height="26" as="geometry" />
        </mxCell>
        <mxCell id="oGyVCp5CdGwXmckuFaIb-36" value="+ CreateItem(string path): T" style="text;strokeColor=none;fillColor=none;align=left;verticalAlign=top;spacingLeft=4;spacingRight=4;overflow=hidden;rotatable=0;points=[[0,0.5],[1,0.5]];portConstraint=eastwest;whiteSpace=wrap;html=1;" vertex="1" parent="oGyVCp5CdGwXmckuFaIb-27">
          <mxGeometry y="170" width="180" height="26" as="geometry" />
        </mxCell>
        <mxCell id="oGyVCp5CdGwXmckuFaIb-32" value="" style="endArrow=block;dashed=1;endFill=0;endSize=12;html=1;rounded=0;exitX=0.5;exitY=0;exitDx=0;exitDy=0;" edge="1" parent="1" source="oGyVCp5CdGwXmckuFaIb-27">
          <mxGeometry width="160" relative="1" as="geometry">
            <mxPoint x="305" y="352" as="sourcePoint" />
            <mxPoint x="515" y="144" as="targetPoint" />
          </mxGeometry>
        </mxCell>
        <mxCell id="oGyVCp5CdGwXmckuFaIb-38" value="UI_HeroList&amp;lt;UI_HeroSlot, Data.CurrentPlayerOwnHero&amp;gt;" style="swimlane;fontStyle=0;childLayout=stackLayout;horizontal=1;startSize=40;fillColor=none;horizontalStack=0;resizeParent=1;resizeParentMax=0;resizeLast=0;collapsible=1;marginBottom=0;whiteSpace=wrap;html=1;" vertex="1" parent="1">
          <mxGeometry x="400" y="480" width="230" height="248" as="geometry" />
        </mxCell>
        <mxCell id="oGyVCp5CdGwXmckuFaIb-74" value="+ 각종 UI 요소들" style="text;strokeColor=none;fillColor=none;align=left;verticalAlign=top;spacingLeft=4;spacingRight=4;overflow=hidden;rotatable=0;points=[[0,0.5],[1,0.5]];portConstraint=eastwest;whiteSpace=wrap;html=1;" vertex="1" parent="oGyVCp5CdGwXmckuFaIb-38">
          <mxGeometry y="40" width="230" height="26" as="geometry" />
        </mxCell>
        <mxCell id="oGyVCp5CdGwXmckuFaIb-88" value="- heroFilter: HeroFilter" style="text;strokeColor=none;fillColor=none;align=left;verticalAlign=top;spacingLeft=4;spacingRight=4;overflow=hidden;rotatable=0;points=[[0,0.5],[1,0.5]];portConstraint=eastwest;whiteSpace=wrap;html=1;" vertex="1" parent="oGyVCp5CdGwXmckuFaIb-38">
          <mxGeometry y="66" width="230" height="26" as="geometry" />
        </mxCell>
        <mxCell id="oGyVCp5CdGwXmckuFaIb-45" value="- heroSorter: HeroSorter" style="text;strokeColor=none;fillColor=none;align=left;verticalAlign=top;spacingLeft=4;spacingRight=4;overflow=hidden;rotatable=0;points=[[0,0.5],[1,0.5]];portConstraint=eastwest;whiteSpace=wrap;html=1;" vertex="1" parent="oGyVCp5CdGwXmckuFaIb-38">
          <mxGeometry y="92" width="230" height="26" as="geometry" />
        </mxCell>
        <mxCell id="oGyVCp5CdGwXmckuFaIb-47" value="# Awake: void" style="text;strokeColor=none;fillColor=none;align=left;verticalAlign=top;spacingLeft=4;spacingRight=4;overflow=hidden;rotatable=0;points=[[0,0.5],[1,0.5]];portConstraint=eastwest;whiteSpace=wrap;html=1;" vertex="1" parent="oGyVCp5CdGwXmckuFaIb-38">
          <mxGeometry y="118" width="230" height="26" as="geometry" />
        </mxCell>
        <mxCell id="oGyVCp5CdGwXmckuFaIb-40" value="+ Init(): void" style="text;strokeColor=none;fillColor=none;align=left;verticalAlign=top;spacingLeft=4;spacingRight=4;overflow=hidden;rotatable=0;points=[[0,0.5],[1,0.5]];portConstraint=eastwest;whiteSpace=wrap;html=1;" vertex="1" parent="oGyVCp5CdGwXmckuFaIb-38">
          <mxGeometry y="144" width="230" height="26" as="geometry" />
        </mxCell>
        <mxCell id="oGyVCp5CdGwXmckuFaIb-41" value="+ Add(UI_HeroSlot item): void" style="text;strokeColor=none;fillColor=none;align=left;verticalAlign=top;spacingLeft=4;spacingRight=4;overflow=hidden;rotatable=0;points=[[0,0.5],[1,0.5]];portConstraint=eastwest;whiteSpace=wrap;html=1;" vertex="1" parent="oGyVCp5CdGwXmckuFaIb-38">
          <mxGeometry y="170" width="230" height="26" as="geometry" />
        </mxCell>
        <mxCell id="oGyVCp5CdGwXmckuFaIb-42" value="+ Remove(UI_HeroSlot item): void" style="text;strokeColor=none;fillColor=none;align=left;verticalAlign=top;spacingLeft=4;spacingRight=4;overflow=hidden;rotatable=0;points=[[0,0.5],[1,0.5]];portConstraint=eastwest;whiteSpace=wrap;html=1;" vertex="1" parent="oGyVCp5CdGwXmckuFaIb-38">
          <mxGeometry y="196" width="230" height="26" as="geometry" />
        </mxCell>
        <mxCell id="oGyVCp5CdGwXmckuFaIb-43" value="+ CreateItem(string path): UI_HeroSlot" style="text;strokeColor=none;fillColor=none;align=left;verticalAlign=top;spacingLeft=4;spacingRight=4;overflow=hidden;rotatable=0;points=[[0,0.5],[1,0.5]];portConstraint=eastwest;whiteSpace=wrap;html=1;" vertex="1" parent="oGyVCp5CdGwXmckuFaIb-38">
          <mxGeometry y="222" width="230" height="26" as="geometry" />
        </mxCell>
        <mxCell id="oGyVCp5CdGwXmckuFaIb-49" value="" style="endArrow=block;endSize=16;endFill=0;html=1;rounded=0;exitX=0.5;exitY=0;exitDx=0;exitDy=0;entryX=0.5;entryY=1.077;entryDx=0;entryDy=0;entryPerimeter=0;" edge="1" parent="1" source="oGyVCp5CdGwXmckuFaIb-38" target="oGyVCp5CdGwXmckuFaIb-36">
          <mxGeometry width="160" relative="1" as="geometry">
            <mxPoint x="675" y="390" as="sourcePoint" />
            <mxPoint x="835" y="390" as="targetPoint" />
          </mxGeometry>
        </mxCell>
        <mxCell id="oGyVCp5CdGwXmckuFaIb-50" value="" style="endArrow=diamondThin;endFill=1;endSize=24;html=1;rounded=0;exitX=1.006;exitY=0.154;exitDx=0;exitDy=0;exitPerimeter=0;entryX=0;entryY=0.25;entryDx=0;entryDy=0;" edge="1" parent="1" source="oGyVCp5CdGwXmckuFaIb-33" target="oGyVCp5CdGwXmckuFaIb-14">
          <mxGeometry width="160" relative="1" as="geometry">
            <mxPoint x="620" y="390" as="sourcePoint" />
            <mxPoint x="780" y="390" as="targetPoint" />
          </mxGeometry>
        </mxCell>
        <mxCell id="oGyVCp5CdGwXmckuFaIb-52" value="&lt;div&gt;&amp;lt;&amp;lt;interface&amp;gt;&amp;gt;&lt;br&gt;&lt;/div&gt;ICompareStrategy&amp;lt;T, Tdata&amp;gt;" style="swimlane;fontStyle=0;childLayout=stackLayout;horizontal=1;startSize=40;fillColor=none;horizontalStack=0;resizeParent=1;resizeParentMax=0;resizeLast=0;collapsible=1;marginBottom=0;whiteSpace=wrap;html=1;" vertex="1" parent="1">
          <mxGeometry x="198" y="740" width="180" height="66" as="geometry" />
        </mxCell>
        <mxCell id="oGyVCp5CdGwXmckuFaIb-53" value="+ Compare(): int" style="text;strokeColor=none;fillColor=none;align=left;verticalAlign=top;spacingLeft=4;spacingRight=4;overflow=hidden;rotatable=0;points=[[0,0.5],[1,0.5]];portConstraint=eastwest;whiteSpace=wrap;html=1;" vertex="1" parent="oGyVCp5CdGwXmckuFaIb-52">
          <mxGeometry y="40" width="180" height="26" as="geometry" />
        </mxCell>
        <mxCell id="oGyVCp5CdGwXmckuFaIb-57" value="" style="endArrow=block;dashed=1;endFill=0;endSize=12;html=1;rounded=0;exitX=0.938;exitY=0;exitDx=0;exitDy=0;exitPerimeter=0;entryX=0.311;entryY=1.038;entryDx=0;entryDy=0;entryPerimeter=0;" edge="1" parent="1" source="oGyVCp5CdGwXmckuFaIb-58" target="oGyVCp5CdGwXmckuFaIb-53">
          <mxGeometry width="160" relative="1" as="geometry">
            <mxPoint x="287.5" y="854" as="sourcePoint" />
            <mxPoint x="287.5" y="786" as="targetPoint" />
          </mxGeometry>
        </mxCell>
        <mxCell id="oGyVCp5CdGwXmckuFaIb-58" value="CompareByHeroNameStrategy&amp;lt;T, Tdata&amp;gt;" style="swimlane;fontStyle=0;childLayout=stackLayout;horizontal=1;startSize=40;fillColor=none;horizontalStack=0;resizeParent=1;resizeParentMax=0;resizeLast=0;collapsible=1;marginBottom=0;whiteSpace=wrap;html=1;" vertex="1" parent="1">
          <mxGeometry x="10" y="840" width="260" height="66" as="geometry" />
        </mxCell>
        <mxCell id="oGyVCp5CdGwXmckuFaIb-59" value="+ Compare(): int" style="text;strokeColor=none;fillColor=none;align=left;verticalAlign=top;spacingLeft=4;spacingRight=4;overflow=hidden;rotatable=0;points=[[0,0.5],[1,0.5]];portConstraint=eastwest;whiteSpace=wrap;html=1;" vertex="1" parent="oGyVCp5CdGwXmckuFaIb-58">
          <mxGeometry y="40" width="260" height="26" as="geometry" />
        </mxCell>
        <mxCell id="oGyVCp5CdGwXmckuFaIb-67" value="CompareByHeroGradeStrategy&amp;lt;T, Tdata&amp;gt;" style="swimlane;fontStyle=0;childLayout=stackLayout;horizontal=1;startSize=40;fillColor=none;horizontalStack=0;resizeParent=1;resizeParentMax=0;resizeLast=0;collapsible=1;marginBottom=0;whiteSpace=wrap;html=1;" vertex="1" parent="1">
          <mxGeometry x="198" y="1025" width="260" height="66" as="geometry" />
        </mxCell>
        <mxCell id="oGyVCp5CdGwXmckuFaIb-68" value="+ Compare(): int" style="text;strokeColor=none;fillColor=none;align=left;verticalAlign=top;spacingLeft=4;spacingRight=4;overflow=hidden;rotatable=0;points=[[0,0.5],[1,0.5]];portConstraint=eastwest;whiteSpace=wrap;html=1;" vertex="1" parent="oGyVCp5CdGwXmckuFaIb-67">
          <mxGeometry y="40" width="260" height="26" as="geometry" />
        </mxCell>
        <mxCell id="oGyVCp5CdGwXmckuFaIb-69" value="" style="endArrow=block;dashed=1;endFill=0;endSize=12;html=1;rounded=0;exitX=0.577;exitY=-0.03;exitDx=0;exitDy=0;exitPerimeter=0;entryX=0.839;entryY=0.962;entryDx=0;entryDy=0;entryPerimeter=0;" edge="1" parent="1" source="oGyVCp5CdGwXmckuFaIb-67" target="oGyVCp5CdGwXmckuFaIb-53">
          <mxGeometry width="160" relative="1" as="geometry">
            <mxPoint x="231" y="862" as="sourcePoint" />
            <mxPoint x="328" y="800" as="targetPoint" />
          </mxGeometry>
        </mxCell>
        <mxCell id="oGyVCp5CdGwXmckuFaIb-70" value="CompareByHeroLevelStrategy&amp;lt;T, Tdata&amp;gt;" style="swimlane;fontStyle=0;childLayout=stackLayout;horizontal=1;startSize=40;fillColor=none;horizontalStack=0;resizeParent=1;resizeParentMax=0;resizeLast=0;collapsible=1;marginBottom=0;whiteSpace=wrap;html=1;" vertex="1" parent="1">
          <mxGeometry x="44" y="932" width="260" height="66" as="geometry" />
        </mxCell>
        <mxCell id="oGyVCp5CdGwXmckuFaIb-71" value="+ Compare(): int" style="text;strokeColor=none;fillColor=none;align=left;verticalAlign=top;spacingLeft=4;spacingRight=4;overflow=hidden;rotatable=0;points=[[0,0.5],[1,0.5]];portConstraint=eastwest;whiteSpace=wrap;html=1;" vertex="1" parent="oGyVCp5CdGwXmckuFaIb-70">
          <mxGeometry y="40" width="260" height="26" as="geometry" />
        </mxCell>
        <mxCell id="oGyVCp5CdGwXmckuFaIb-73" value="" style="endArrow=block;dashed=1;endFill=0;endSize=12;html=1;rounded=0;exitX=0.938;exitY=-0.045;exitDx=0;exitDy=0;exitPerimeter=0;" edge="1" parent="1" source="oGyVCp5CdGwXmckuFaIb-70" target="oGyVCp5CdGwXmckuFaIb-53">
          <mxGeometry width="160" relative="1" as="geometry">
            <mxPoint x="298" y="1025" as="sourcePoint" />
            <mxPoint x="299" y="800" as="targetPoint" />
          </mxGeometry>
        </mxCell>
        <mxCell id="oGyVCp5CdGwXmckuFaIb-75" value="HeroSorter" style="swimlane;fontStyle=0;childLayout=stackLayout;horizontal=1;startSize=40;fillColor=none;horizontalStack=0;resizeParent=1;resizeParentMax=0;resizeLast=0;collapsible=1;marginBottom=0;whiteSpace=wrap;html=1;" vertex="1" parent="1">
          <mxGeometry x="99" y="468" width="230" height="220" as="geometry" />
        </mxCell>
        <mxCell id="oGyVCp5CdGwXmckuFaIb-83" value="&lt;div style=&quot;text-align: center;&quot;&gt;&lt;span style=&quot;background-color: initial;&quot;&gt;- ICompareStrategy:&amp;nbsp;&lt;/span&gt;&lt;/div&gt;&lt;div style=&quot;text-align: center;&quot;&gt;&lt;span style=&quot;background-color: initial; text-align: center;&quot;&gt;ICompareStrategy&amp;lt;UI_HeroSlot, Data.CurrentPlayerOwnHero&amp;gt;&lt;/span&gt;&lt;/div&gt;" style="text;strokeColor=none;fillColor=none;align=left;verticalAlign=top;spacingLeft=4;spacingRight=4;overflow=hidden;rotatable=0;points=[[0,0.5],[1,0.5]];portConstraint=eastwest;whiteSpace=wrap;html=1;" vertex="1" parent="oGyVCp5CdGwXmckuFaIb-75">
          <mxGeometry y="40" width="230" height="60" as="geometry" />
        </mxCell>
        <mxCell id="oGyVCp5CdGwXmckuFaIb-84" value="&lt;div style=&quot;text-align: center;&quot;&gt;+ SetStrategy(ICompareStrategy&amp;lt;&lt;span style=&quot;background-color: initial;&quot;&gt;UI_HeroSlot, Data.CurrentPlayerOwnHero&lt;/span&gt;&lt;span style=&quot;background-color: initial;&quot;&gt;&amp;gt; strategy)&lt;/span&gt;&lt;/div&gt;" style="text;strokeColor=none;fillColor=none;align=left;verticalAlign=top;spacingLeft=4;spacingRight=4;overflow=hidden;rotatable=0;points=[[0,0.5],[1,0.5]];portConstraint=eastwest;whiteSpace=wrap;html=1;" vertex="1" parent="oGyVCp5CdGwXmckuFaIb-75">
          <mxGeometry y="100" width="230" height="60" as="geometry" />
        </mxCell>
        <mxCell id="oGyVCp5CdGwXmckuFaIb-77" value="&lt;div style=&quot;text-align: center;&quot;&gt;+ Sort(List&amp;lt;UI_HeroSlot&amp;gt;, bool isAsending): void&lt;/div&gt;" style="text;strokeColor=none;fillColor=none;align=left;verticalAlign=top;spacingLeft=4;spacingRight=4;overflow=hidden;rotatable=0;points=[[0,0.5],[1,0.5]];portConstraint=eastwest;whiteSpace=wrap;html=1;" vertex="1" parent="oGyVCp5CdGwXmckuFaIb-75">
          <mxGeometry y="160" width="230" height="60" as="geometry" />
        </mxCell>
        <mxCell id="oGyVCp5CdGwXmckuFaIb-85" value="" style="endArrow=diamondThin;endFill=1;endSize=24;html=1;rounded=0;exitX=0.648;exitY=1;exitDx=0;exitDy=0;exitPerimeter=0;entryX=0.444;entryY=0;entryDx=0;entryDy=0;entryPerimeter=0;" edge="1" parent="1" source="oGyVCp5CdGwXmckuFaIb-77" target="oGyVCp5CdGwXmckuFaIb-52">
          <mxGeometry width="160" relative="1" as="geometry">
            <mxPoint x="290" y="720" as="sourcePoint" />
            <mxPoint x="347" y="720" as="targetPoint" />
          </mxGeometry>
        </mxCell>
        <mxCell id="oGyVCp5CdGwXmckuFaIb-86" value="" style="endArrow=diamondThin;endFill=1;endSize=24;html=1;rounded=0;exitX=0;exitY=0.5;exitDx=0;exitDy=0;entryX=1.009;entryY=0.283;entryDx=0;entryDy=0;entryPerimeter=0;" edge="1" parent="1" source="oGyVCp5CdGwXmckuFaIb-45" target="oGyVCp5CdGwXmckuFaIb-84">
          <mxGeometry width="160" relative="1" as="geometry">
            <mxPoint x="288" y="692" as="sourcePoint" />
            <mxPoint x="288" y="750" as="targetPoint" />
          </mxGeometry>
        </mxCell>
        <mxCell id="oGyVCp5CdGwXmckuFaIb-89" value="HeroFilter" style="swimlane;fontStyle=0;childLayout=stackLayout;horizontal=1;startSize=40;fillColor=none;horizontalStack=0;resizeParent=1;resizeParentMax=0;resizeLast=0;collapsible=1;marginBottom=0;whiteSpace=wrap;html=1;" vertex="1" parent="1">
          <mxGeometry x="129" y="285" width="230" height="110" as="geometry" />
        </mxCell>
        <mxCell id="oGyVCp5CdGwXmckuFaIb-91" value="&lt;div style=&quot;text-align: center;&quot;&gt;+ ClassFilter: int&lt;/div&gt;" style="text;strokeColor=none;fillColor=none;align=left;verticalAlign=top;spacingLeft=4;spacingRight=4;overflow=hidden;rotatable=0;points=[[0,0.5],[1,0.5]];portConstraint=eastwest;whiteSpace=wrap;html=1;" vertex="1" parent="oGyVCp5CdGwXmckuFaIb-89">
          <mxGeometry y="40" width="230" height="20" as="geometry" />
        </mxCell>
        <mxCell id="oGyVCp5CdGwXmckuFaIb-93" value="&lt;div style=&quot;text-align: center;&quot;&gt;+ TypeFilter: int&lt;/div&gt;" style="text;strokeColor=none;fillColor=none;align=left;verticalAlign=top;spacingLeft=4;spacingRight=4;overflow=hidden;rotatable=0;points=[[0,0.5],[1,0.5]];portConstraint=eastwest;whiteSpace=wrap;html=1;" vertex="1" parent="oGyVCp5CdGwXmckuFaIb-89">
          <mxGeometry y="60" width="230" height="20" as="geometry" />
        </mxCell>
        <mxCell id="oGyVCp5CdGwXmckuFaIb-90" value="&lt;div style=&quot;text-align: center;&quot;&gt;+ UpdateFilter(List&amp;lt;UI_HeroSlot): void&lt;/div&gt;" style="text;strokeColor=none;fillColor=none;align=left;verticalAlign=top;spacingLeft=4;spacingRight=4;overflow=hidden;rotatable=0;points=[[0,0.5],[1,0.5]];portConstraint=eastwest;whiteSpace=wrap;html=1;" vertex="1" parent="oGyVCp5CdGwXmckuFaIb-89">
          <mxGeometry y="80" width="230" height="30" as="geometry" />
        </mxCell>
        <mxCell id="oGyVCp5CdGwXmckuFaIb-94" value="" style="endArrow=diamondThin;endFill=1;endSize=24;html=1;rounded=0;exitX=0.057;exitY=-0.016;exitDx=0;exitDy=0;entryX=0.896;entryY=0.867;entryDx=0;entryDy=0;entryPerimeter=0;exitPerimeter=0;" edge="1" parent="1" source="oGyVCp5CdGwXmckuFaIb-38" target="oGyVCp5CdGwXmckuFaIb-90">
          <mxGeometry width="160" relative="1" as="geometry">
            <mxPoint x="410" y="595" as="sourcePoint" />
            <mxPoint x="341" y="595" as="targetPoint" />
          </mxGeometry>
        </mxCell>
      </root>
    </mxGraphModel>
  </diagram>
</mxfile>
